<svg xmlns="http://www.w3.org/2000/svg" width="48" height="48" viewBox="0 0 48 48"><defs><style>.cls-1{fill:#f1f2f2;}.cls-2{fill:#fa5c66;}.cls-3{fill:#474c54;}</style></defs><title>5-Youtube</title><g id="_5-Youtube" data-name="5-Youtube"><g id="_Group_" data-name="&lt;Group&gt;"><polygon class="cls-1" points="28 22 20 26 20 18 28 22"/><path class="cls-2" d="M47,7V41a6,6,0,0,1-6,6H7a6,6,0,0,1-6-6V7A6,6,0,0,1,7,1H41A6,6,0,0,1,47,7ZM20,26l8-4-8-4Z"/><path class="cls-3" d="M41,0H7A7.008,7.008,0,0,0,0,7V41a7.008,7.008,0,0,0,7,7H41a7.008,7.008,0,0,0,7-7V7A7.008,7.008,0,0,0,41,0Zm5,41a5.006,5.006,0,0,1-5,5H7a5.006,5.006,0,0,1-5-5V7A5.006,5.006,0,0,1,7,2H41a5.006,5.006,0,0,1,5,5Z"/><path class="cls-3" d="M30,38H14V37a1,1,0,0,0-2,0v1H6a1,1,0,0,0,0,2h6v1a1,1,0,0,0,2,0V40H30a1,1,0,0,0,0-2Z"/><path class="cls-3" d="M36,38H34a1,1,0,0,0,0,2h2a1,1,0,0,0,0-2Z"/><path class="cls-3" d="M42,38H40a1,1,0,0,0,0,2h2a1,1,0,0,0,0-2Z"/><path class="cls-3" d="M19.474,26.851a1,1,0,0,0,.973.044l8-4a1,1,0,0,0,0-1.79l-8-4A1,1,0,0,0,19,18v8A1,1,0,0,0,19.474,26.851ZM21,19.618,25.764,22,21,24.382Z"/></g></g></svg>